<svg xmlns="http://www.w3.org/2000/svg" xmlns:xlink="http://www.w3.org/1999/xlink" width="200" zoomAndPan="magnify" viewBox="0 0 150 30.000001" height="40" preserveAspectRatio="xMidYMid meet" version="1.0"><defs><g/><clipPath id="c648d3f99f"><path d="M 2.417969 0 L 147.578125 0 L 147.578125 29.03125 L 2.417969 29.03125 Z M 2.417969 0 " clip-rule="nonzero"/></clipPath></defs><g clip-path="url(#c648d3f99f)"><path fill="#ffffff" d="M 2.417969 0 L 147.582031 0 L 147.582031 36.289062 L 2.417969 36.289062 Z M 2.417969 0 " fill-opacity="1" fill-rule="nonzero"/><path fill="#ffffff" d="M 2.417969 0 L 147.582031 0 L 147.582031 29.03125 L 2.417969 29.03125 Z M 2.417969 0 " fill-opacity="1" fill-rule="nonzero"/><path fill="#000000" d="M 2.417969 0 L 147.582031 0 L 147.582031 29.03125 L 2.417969 29.03125 Z M 2.417969 0 " fill-opacity="1" fill-rule="nonzero"/></g><g fill="#ffffff" fill-opacity="1"><g transform="translate(16.582219, 17.624826)"><g><path d="M 10.390625 -11.046875 L 10.390625 -3.90625 C 10.390625 -3.144531 10.222656 -2.457031 9.890625 -1.84375 C 9.554688 -1.226562 9.046875 -0.738281 8.359375 -0.375 C 7.679688 -0.0195312 6.832031 0.15625 5.8125 0.15625 C 4.34375 0.15625 3.222656 -0.21875 2.453125 -0.96875 C 1.691406 -1.71875 1.3125 -2.707031 1.3125 -3.9375 L 1.3125 -11.046875 L 3.65625 -11.046875 L 3.65625 -4.28125 C 3.65625 -3.375 3.835938 -2.734375 4.203125 -2.359375 C 4.578125 -1.992188 5.128906 -1.8125 5.859375 -1.8125 C 6.378906 -1.8125 6.796875 -1.898438 7.109375 -2.078125 C 7.429688 -2.253906 7.664062 -2.523438 7.8125 -2.890625 C 7.96875 -3.265625 8.046875 -3.734375 8.046875 -4.296875 L 8.046875 -11.046875 Z M 10.390625 -11.046875 "/></g></g></g><g fill="#ffffff" fill-opacity="1"><g transform="translate(27.508787, 17.624826)"><g><path d="M 8.15625 0 L 7.359375 -2.625 L 3.328125 -2.625 L 2.53125 0 L 0 0 L 3.90625 -11.09375 L 6.765625 -11.09375 L 10.6875 0 Z M 6.796875 -4.59375 L 6 -7.171875 C 5.945312 -7.335938 5.878906 -7.554688 5.796875 -7.828125 C 5.710938 -8.097656 5.628906 -8.375 5.546875 -8.65625 C 5.460938 -8.9375 5.394531 -9.179688 5.34375 -9.390625 C 5.289062 -9.179688 5.21875 -8.921875 5.125 -8.609375 C 5.039062 -8.304688 4.957031 -8.019531 4.875 -7.75 C 4.800781 -7.476562 4.742188 -7.285156 4.703125 -7.171875 L 3.921875 -4.59375 Z M 6.796875 -4.59375 "/></g></g></g><g fill="#ffffff" fill-opacity="1"><g transform="translate(18.23953, 26.729246)"><g><path d="M 4.40625 -2.203125 C 4.40625 -1.492188 4.226562 -0.9375 3.875 -0.53125 C 3.519531 -0.132812 3.023438 0.0625 2.390625 0.0625 C 1.742188 0.0625 1.242188 -0.132812 0.890625 -0.53125 C 0.546875 -0.925781 0.375 -1.484375 0.375 -2.203125 C 0.375 -2.921875 0.550781 -3.472656 0.90625 -3.859375 C 1.257812 -4.253906 1.757812 -4.453125 2.40625 -4.453125 C 3.03125 -4.453125 3.519531 -4.25 3.875 -3.84375 C 4.226562 -3.445312 4.40625 -2.898438 4.40625 -2.203125 Z M 0.921875 -2.203125 C 0.921875 -1.609375 1.046875 -1.15625 1.296875 -0.84375 C 1.546875 -0.539062 1.910156 -0.390625 2.390625 -0.390625 C 2.878906 -0.390625 3.25 -0.539062 3.5 -0.84375 C 3.75 -1.144531 3.875 -1.597656 3.875 -2.203125 C 3.875 -2.785156 3.75 -3.226562 3.5 -3.53125 C 3.25 -3.84375 2.882812 -4 2.40625 -4 C 1.914062 -4 1.546875 -3.84375 1.296875 -3.53125 C 1.046875 -3.226562 0.921875 -2.785156 0.921875 -2.203125 Z M 0.921875 -2.203125 "/></g></g></g><g fill="#ffffff" fill-opacity="1"><g transform="translate(26.082083, 26.729246)"><g><path d="M 2.03125 -3.34375 C 2.175781 -3.34375 2.304688 -3.332031 2.421875 -3.3125 L 2.34375 -2.84375 C 2.207031 -2.875 2.085938 -2.890625 1.984375 -2.890625 C 1.722656 -2.890625 1.5 -2.78125 1.3125 -2.5625 C 1.125 -2.351562 1.03125 -2.085938 1.03125 -1.765625 L 1.03125 0 L 0.53125 0 L 0.53125 -3.28125 L 0.9375 -3.28125 L 1 -2.671875 L 1.015625 -2.671875 C 1.140625 -2.890625 1.285156 -3.054688 1.453125 -3.171875 C 1.628906 -3.285156 1.820312 -3.34375 2.03125 -3.34375 Z M 2.03125 -3.34375 "/></g></g></g><g fill="#ffffff" fill-opacity="1"><g transform="translate(31.650043, 26.729246)"><g><path d="M 3.21875 -3.28125 L 3.21875 -2.96875 L 2.609375 -2.90625 C 2.660156 -2.832031 2.707031 -2.738281 2.75 -2.625 C 2.800781 -2.507812 2.828125 -2.382812 2.828125 -2.25 C 2.828125 -1.925781 2.71875 -1.664062 2.5 -1.46875 C 2.28125 -1.28125 1.976562 -1.1875 1.59375 -1.1875 C 1.488281 -1.1875 1.394531 -1.191406 1.3125 -1.203125 C 1.101562 -1.097656 1 -0.957031 1 -0.78125 C 1 -0.695312 1.035156 -0.628906 1.109375 -0.578125 C 1.179688 -0.535156 1.304688 -0.515625 1.484375 -0.515625 L 2.0625 -0.515625 C 2.425781 -0.515625 2.703125 -0.441406 2.890625 -0.296875 C 3.078125 -0.148438 3.171875 0.0664062 3.171875 0.359375 C 3.171875 0.722656 3.023438 1 2.734375 1.1875 C 2.441406 1.375 2.015625 1.46875 1.453125 1.46875 C 1.023438 1.46875 0.691406 1.390625 0.453125 1.234375 C 0.222656 1.078125 0.109375 0.851562 0.109375 0.5625 C 0.109375 0.363281 0.171875 0.1875 0.296875 0.03125 C 0.429688 -0.113281 0.613281 -0.210938 0.84375 -0.265625 C 0.757812 -0.296875 0.6875 -0.351562 0.625 -0.4375 C 0.570312 -0.519531 0.546875 -0.613281 0.546875 -0.71875 C 0.546875 -0.832031 0.578125 -0.929688 0.640625 -1.015625 C 0.710938 -1.109375 0.816406 -1.203125 0.953125 -1.296875 C 0.785156 -1.359375 0.644531 -1.472656 0.53125 -1.640625 C 0.425781 -1.804688 0.375 -2 0.375 -2.21875 C 0.375 -2.582031 0.476562 -2.859375 0.6875 -3.046875 C 0.90625 -3.242188 1.210938 -3.34375 1.609375 -3.34375 C 1.785156 -3.34375 1.941406 -3.320312 2.078125 -3.28125 Z M 0.59375 0.546875 C 0.59375 0.722656 0.664062 0.859375 0.8125 0.953125 C 0.96875 1.046875 1.1875 1.09375 1.46875 1.09375 C 1.882812 1.09375 2.191406 1.03125 2.390625 0.90625 C 2.597656 0.78125 2.703125 0.613281 2.703125 0.40625 C 2.703125 0.21875 2.644531 0.0859375 2.53125 0.015625 C 2.414062 -0.046875 2.207031 -0.078125 1.90625 -0.078125 L 1.3125 -0.078125 C 1.082031 -0.078125 0.90625 -0.0234375 0.78125 0.078125 C 0.65625 0.191406 0.59375 0.347656 0.59375 0.546875 Z M 0.859375 -2.234375 C 0.859375 -2.003906 0.921875 -1.828125 1.046875 -1.703125 C 1.179688 -1.585938 1.367188 -1.53125 1.609375 -1.53125 C 2.085938 -1.53125 2.328125 -1.769531 2.328125 -2.25 C 2.328125 -2.738281 2.082031 -2.984375 1.59375 -2.984375 C 1.363281 -2.984375 1.179688 -2.921875 1.046875 -2.796875 C 0.921875 -2.671875 0.859375 -2.484375 0.859375 -2.234375 Z M 0.859375 -2.234375 "/></g></g></g><g fill="#ffffff" fill-opacity="1"><g transform="translate(38.075097, 26.729246)"><g><path d="M 2.546875 0 L 2.453125 -0.46875 L 2.421875 -0.46875 C 2.265625 -0.257812 2.101562 -0.117188 1.9375 -0.046875 C 1.769531 0.0234375 1.566406 0.0625 1.328125 0.0625 C 1.003906 0.0625 0.75 -0.0195312 0.5625 -0.1875 C 0.375 -0.351562 0.28125 -0.59375 0.28125 -0.90625 C 0.28125 -1.570312 0.8125 -1.921875 1.875 -1.953125 L 2.4375 -1.96875 L 2.4375 -2.171875 C 2.4375 -2.429688 2.378906 -2.617188 2.265625 -2.734375 C 2.148438 -2.859375 1.972656 -2.921875 1.734375 -2.921875 C 1.460938 -2.921875 1.148438 -2.835938 0.796875 -2.671875 L 0.65625 -3.0625 C 0.8125 -3.144531 0.984375 -3.210938 1.171875 -3.265625 C 1.367188 -3.316406 1.566406 -3.34375 1.765625 -3.34375 C 2.148438 -3.34375 2.4375 -3.253906 2.625 -3.078125 C 2.820312 -2.898438 2.921875 -2.625 2.921875 -2.25 L 2.921875 0 Z M 1.421875 -0.34375 C 1.734375 -0.34375 1.976562 -0.425781 2.15625 -0.59375 C 2.332031 -0.769531 2.421875 -1.007812 2.421875 -1.3125 L 2.421875 -1.609375 L 1.921875 -1.59375 C 1.523438 -1.582031 1.238281 -1.519531 1.0625 -1.40625 C 0.882812 -1.300781 0.796875 -1.132812 0.796875 -0.90625 C 0.796875 -0.71875 0.847656 -0.578125 0.953125 -0.484375 C 1.066406 -0.390625 1.222656 -0.34375 1.421875 -0.34375 Z M 1.421875 -0.34375 "/></g></g></g><g fill="#ffffff" fill-opacity="1"><g transform="translate(44.551096, 26.729246)"><g><path d="M 2.78125 0 L 2.78125 -2.125 C 2.78125 -2.394531 2.71875 -2.59375 2.59375 -2.71875 C 2.46875 -2.851562 2.273438 -2.921875 2.015625 -2.921875 C 1.671875 -2.921875 1.421875 -2.828125 1.265625 -2.640625 C 1.109375 -2.453125 1.03125 -2.144531 1.03125 -1.71875 L 1.03125 0 L 0.53125 0 L 0.53125 -3.28125 L 0.9375 -3.28125 L 1.015625 -2.84375 L 1.03125 -2.84375 C 1.132812 -3 1.273438 -3.117188 1.453125 -3.203125 C 1.640625 -3.296875 1.847656 -3.34375 2.078125 -3.34375 C 2.472656 -3.34375 2.769531 -3.25 2.96875 -3.0625 C 3.175781 -2.875 3.28125 -2.566406 3.28125 -2.140625 L 3.28125 0 Z M 2.78125 0 "/></g></g></g><g fill="#ffffff" fill-opacity="1"><g transform="translate(51.380722, 26.729246)"><g><path d="M 1.03125 0 L 0.53125 0 L 0.53125 -3.28125 L 1.03125 -3.28125 Z M 0.484375 -4.171875 C 0.484375 -4.285156 0.507812 -4.367188 0.5625 -4.421875 C 0.625 -4.472656 0.695312 -4.5 0.78125 -4.5 C 0.863281 -4.5 0.929688 -4.472656 0.984375 -4.421875 C 1.046875 -4.367188 1.078125 -4.285156 1.078125 -4.171875 C 1.078125 -4.066406 1.046875 -3.984375 0.984375 -3.921875 C 0.929688 -3.867188 0.863281 -3.84375 0.78125 -3.84375 C 0.695312 -3.84375 0.625 -3.867188 0.5625 -3.921875 C 0.507812 -3.984375 0.484375 -4.066406 0.484375 -4.171875 Z M 0.484375 -4.171875 "/></g></g></g><g fill="#ffffff" fill-opacity="1"><g transform="translate(55.995691, 26.729246)"><g><path d="M 1.84375 0.0625 C 1.363281 0.0625 0.992188 -0.0820312 0.734375 -0.375 C 0.472656 -0.664062 0.34375 -1.082031 0.34375 -1.625 C 0.34375 -2.175781 0.472656 -2.597656 0.734375 -2.890625 C 1.003906 -3.191406 1.382812 -3.34375 1.875 -3.34375 C 2.03125 -3.34375 2.1875 -3.328125 2.34375 -3.296875 C 2.5 -3.265625 2.625 -3.222656 2.71875 -3.171875 L 2.5625 -2.75 C 2.457031 -2.789062 2.335938 -2.828125 2.203125 -2.859375 C 2.078125 -2.890625 1.960938 -2.90625 1.859375 -2.90625 C 1.191406 -2.90625 0.859375 -2.476562 0.859375 -1.625 C 0.859375 -1.21875 0.9375 -0.90625 1.09375 -0.6875 C 1.257812 -0.476562 1.503906 -0.375 1.828125 -0.375 C 2.097656 -0.375 2.378906 -0.429688 2.671875 -0.546875 L 2.671875 -0.109375 C 2.453125 0.00390625 2.175781 0.0625 1.84375 0.0625 Z M 1.84375 0.0625 "/></g></g></g><g fill="#ffffff" fill-opacity="1"><g transform="translate(61.980211, 26.729246)"><g/></g></g><g fill="#ffffff" fill-opacity="1"><g transform="translate(66.637135, 26.729246)"><g><path d="M 2.546875 0 L 2.453125 -0.46875 L 2.421875 -0.46875 C 2.265625 -0.257812 2.101562 -0.117188 1.9375 -0.046875 C 1.769531 0.0234375 1.566406 0.0625 1.328125 0.0625 C 1.003906 0.0625 0.75 -0.0195312 0.5625 -0.1875 C 0.375 -0.351562 0.28125 -0.59375 0.28125 -0.90625 C 0.28125 -1.570312 0.8125 -1.921875 1.875 -1.953125 L 2.4375 -1.96875 L 2.4375 -2.171875 C 2.4375 -2.429688 2.378906 -2.617188 2.265625 -2.734375 C 2.148438 -2.859375 1.972656 -2.921875 1.734375 -2.921875 C 1.460938 -2.921875 1.148438 -2.835938 0.796875 -2.671875 L 0.65625 -3.0625 C 0.8125 -3.144531 0.984375 -3.210938 1.171875 -3.265625 C 1.367188 -3.316406 1.566406 -3.34375 1.765625 -3.34375 C 2.148438 -3.34375 2.4375 -3.253906 2.625 -3.078125 C 2.820312 -2.898438 2.921875 -2.625 2.921875 -2.25 L 2.921875 0 Z M 1.421875 -0.34375 C 1.734375 -0.34375 1.976562 -0.425781 2.15625 -0.59375 C 2.332031 -0.769531 2.421875 -1.007812 2.421875 -1.3125 L 2.421875 -1.609375 L 1.921875 -1.59375 C 1.523438 -1.582031 1.238281 -1.519531 1.0625 -1.40625 C 0.882812 -1.300781 0.796875 -1.132812 0.796875 -0.90625 C 0.796875 -0.71875 0.847656 -0.578125 0.953125 -0.484375 C 1.066406 -0.390625 1.222656 -0.34375 1.421875 -0.34375 Z M 1.421875 -0.34375 "/></g></g></g><g fill="#ffffff" fill-opacity="1"><g transform="translate(73.113134, 26.729246)"><g><path d="M 2.78125 0 L 2.78125 -2.125 C 2.78125 -2.394531 2.71875 -2.59375 2.59375 -2.71875 C 2.46875 -2.851562 2.273438 -2.921875 2.015625 -2.921875 C 1.671875 -2.921875 1.421875 -2.828125 1.265625 -2.640625 C 1.109375 -2.453125 1.03125 -2.144531 1.03125 -1.71875 L 1.03125 0 L 0.53125 0 L 0.53125 -3.28125 L 0.9375 -3.28125 L 1.015625 -2.84375 L 1.03125 -2.84375 C 1.132812 -3 1.273438 -3.117188 1.453125 -3.203125 C 1.640625 -3.296875 1.847656 -3.34375 2.078125 -3.34375 C 2.472656 -3.34375 2.769531 -3.25 2.96875 -3.0625 C 3.175781 -2.875 3.28125 -2.566406 3.28125 -2.140625 L 3.28125 0 Z M 2.78125 0 "/></g></g></g><g fill="#ffffff" fill-opacity="1"><g transform="translate(79.942759, 26.729246)"><g><path d="M 2.765625 -0.4375 L 2.734375 -0.4375 C 2.503906 -0.101562 2.160156 0.0625 1.703125 0.0625 C 1.273438 0.0625 0.941406 -0.0820312 0.703125 -0.375 C 0.460938 -0.675781 0.34375 -1.097656 0.34375 -1.640625 C 0.34375 -2.179688 0.460938 -2.597656 0.703125 -2.890625 C 0.941406 -3.191406 1.273438 -3.34375 1.703125 -3.34375 C 2.148438 -3.34375 2.492188 -3.179688 2.734375 -2.859375 L 2.765625 -2.859375 L 2.734375 -3.328125 L 2.734375 -4.671875 L 3.234375 -4.671875 L 3.234375 0 L 2.828125 0 Z M 1.765625 -0.359375 C 2.109375 -0.359375 2.351562 -0.445312 2.5 -0.625 C 2.65625 -0.8125 2.734375 -1.113281 2.734375 -1.53125 L 2.734375 -1.640625 C 2.734375 -2.097656 2.65625 -2.425781 2.5 -2.625 C 2.34375 -2.820312 2.097656 -2.921875 1.765625 -2.921875 C 1.472656 -2.921875 1.25 -2.804688 1.09375 -2.578125 C 0.9375 -2.359375 0.859375 -2.039062 0.859375 -1.625 C 0.859375 -1.207031 0.9375 -0.890625 1.09375 -0.671875 C 1.25 -0.460938 1.472656 -0.359375 1.765625 -0.359375 Z M 1.765625 -0.359375 "/></g></g></g><g fill="#ffffff" fill-opacity="1"><g transform="translate(86.766389, 26.729246)"><g/></g></g><g fill="#ffffff" fill-opacity="1"><g transform="translate(91.423318, 26.729246)"><g><path d="M 3.9375 0 L 3.421875 0 L 3.421875 -2.0625 L 1.109375 -2.0625 L 1.109375 0 L 0.609375 0 L 0.609375 -4.390625 L 1.109375 -4.390625 L 1.109375 -2.515625 L 3.421875 -2.515625 L 3.421875 -4.390625 L 3.9375 -4.390625 Z M 3.9375 0 "/></g></g></g><g fill="#ffffff" fill-opacity="1"><g transform="translate(99.01414, 26.729246)"><g><path d="M 1.921875 0.0625 C 1.429688 0.0625 1.046875 -0.0820312 0.765625 -0.375 C 0.484375 -0.675781 0.34375 -1.085938 0.34375 -1.609375 C 0.34375 -2.140625 0.472656 -2.5625 0.734375 -2.875 C 0.992188 -3.1875 1.34375 -3.34375 1.78125 -3.34375 C 2.195312 -3.34375 2.523438 -3.207031 2.765625 -2.9375 C 3.003906 -2.664062 3.125 -2.3125 3.125 -1.875 L 3.125 -1.546875 L 0.859375 -1.546875 C 0.867188 -1.160156 0.96875 -0.867188 1.15625 -0.671875 C 1.34375 -0.472656 1.601562 -0.375 1.9375 -0.375 C 2.289062 -0.375 2.640625 -0.445312 2.984375 -0.59375 L 2.984375 -0.15625 C 2.804688 -0.0703125 2.640625 -0.015625 2.484375 0.015625 C 2.328125 0.046875 2.140625 0.0625 1.921875 0.0625 Z M 1.78125 -2.921875 C 1.519531 -2.921875 1.3125 -2.832031 1.15625 -2.65625 C 1 -2.488281 0.90625 -2.253906 0.875 -1.953125 L 2.59375 -1.953125 C 2.59375 -2.265625 2.519531 -2.503906 2.375 -2.671875 C 2.238281 -2.835938 2.039062 -2.921875 1.78125 -2.921875 Z M 1.78125 -2.921875 "/></g></g></g><g fill="#ffffff" fill-opacity="1"><g transform="translate(105.520111, 26.729246)"><g><path d="M 2.546875 0 L 2.453125 -0.46875 L 2.421875 -0.46875 C 2.265625 -0.257812 2.101562 -0.117188 1.9375 -0.046875 C 1.769531 0.0234375 1.566406 0.0625 1.328125 0.0625 C 1.003906 0.0625 0.75 -0.0195312 0.5625 -0.1875 C 0.375 -0.351562 0.28125 -0.59375 0.28125 -0.90625 C 0.28125 -1.570312 0.8125 -1.921875 1.875 -1.953125 L 2.4375 -1.96875 L 2.4375 -2.171875 C 2.4375 -2.429688 2.378906 -2.617188 2.265625 -2.734375 C 2.148438 -2.859375 1.972656 -2.921875 1.734375 -2.921875 C 1.460938 -2.921875 1.148438 -2.835938 0.796875 -2.671875 L 0.65625 -3.0625 C 0.8125 -3.144531 0.984375 -3.210938 1.171875 -3.265625 C 1.367188 -3.316406 1.566406 -3.34375 1.765625 -3.34375 C 2.148438 -3.34375 2.4375 -3.253906 2.625 -3.078125 C 2.820312 -2.898438 2.921875 -2.625 2.921875 -2.25 L 2.921875 0 Z M 1.421875 -0.34375 C 1.734375 -0.34375 1.976562 -0.425781 2.15625 -0.59375 C 2.332031 -0.769531 2.421875 -1.007812 2.421875 -1.3125 L 2.421875 -1.609375 L 1.921875 -1.59375 C 1.523438 -1.582031 1.238281 -1.519531 1.0625 -1.40625 C 0.882812 -1.300781 0.796875 -1.132812 0.796875 -0.90625 C 0.796875 -0.71875 0.847656 -0.578125 0.953125 -0.484375 C 1.066406 -0.390625 1.222656 -0.34375 1.421875 -0.34375 Z M 1.421875 -0.34375 "/></g></g></g><g fill="#ffffff" fill-opacity="1"><g transform="translate(111.996114, 26.729246)"><g><path d="M 1.03125 0 L 0.53125 0 L 0.53125 -4.671875 L 1.03125 -4.671875 Z M 1.03125 0 "/></g></g></g><g fill="#ffffff" fill-opacity="1"><g transform="translate(116.611087, 26.729246)"><g><path d="M 1.59375 -0.34375 C 1.675781 -0.34375 1.757812 -0.347656 1.84375 -0.359375 C 1.925781 -0.378906 1.988281 -0.394531 2.03125 -0.40625 L 2.03125 -0.03125 C 1.976562 0 1.898438 0.0195312 1.796875 0.03125 C 1.691406 0.0507812 1.597656 0.0625 1.515625 0.0625 C 0.878906 0.0625 0.5625 -0.269531 0.5625 -0.9375 L 0.5625 -2.90625 L 0.09375 -2.90625 L 0.09375 -3.140625 L 0.5625 -3.34375 L 0.78125 -4.046875 L 1.0625 -4.046875 L 1.0625 -3.28125 L 2.015625 -3.28125 L 2.015625 -2.90625 L 1.0625 -2.90625 L 1.0625 -0.96875 C 1.0625 -0.769531 1.109375 -0.613281 1.203125 -0.5 C 1.296875 -0.394531 1.425781 -0.34375 1.59375 -0.34375 Z M 1.59375 -0.34375 "/></g></g></g><g fill="#ffffff" fill-opacity="1"><g transform="translate(121.84041, 26.729246)"><g><path d="M 2.78125 0 L 2.78125 -2.125 C 2.78125 -2.394531 2.71875 -2.59375 2.59375 -2.71875 C 2.46875 -2.851562 2.273438 -2.921875 2.015625 -2.921875 C 1.671875 -2.921875 1.421875 -2.828125 1.265625 -2.640625 C 1.109375 -2.453125 1.03125 -2.144531 1.03125 -1.71875 L 1.03125 0 L 0.53125 0 L 0.53125 -4.671875 L 1.03125 -4.671875 L 1.03125 -3.25 C 1.03125 -3.082031 1.019531 -2.941406 1 -2.828125 L 1.03125 -2.828125 C 1.125 -2.984375 1.257812 -3.109375 1.4375 -3.203125 C 1.625 -3.296875 1.832031 -3.34375 2.0625 -3.34375 C 2.46875 -3.34375 2.769531 -3.242188 2.96875 -3.046875 C 3.175781 -2.859375 3.28125 -2.554688 3.28125 -2.140625 L 3.28125 0 Z M 2.78125 0 "/></g></g></g><g fill="#ffffff" fill-opacity="1"><g transform="translate(128.670038, 26.729246)"><g><path d="M 0 -3.28125 L 0.546875 -3.28125 L 1.265625 -1.40625 C 1.421875 -0.976562 1.515625 -0.671875 1.546875 -0.484375 L 1.578125 -0.484375 C 1.597656 -0.585938 1.648438 -0.757812 1.734375 -1 C 1.816406 -1.25 2.085938 -2.007812 2.546875 -3.28125 L 3.09375 -3.28125 L 1.671875 0.453125 C 1.535156 0.828125 1.375 1.085938 1.1875 1.234375 C 1 1.390625 0.769531 1.46875 0.5 1.46875 C 0.34375 1.46875 0.191406 1.453125 0.046875 1.421875 L 0.046875 1.03125 C 0.160156 1.050781 0.285156 1.0625 0.421875 1.0625 C 0.753906 1.0625 0.992188 0.867188 1.140625 0.484375 L 1.328125 0.015625 Z M 0 -3.28125 "/></g></g></g><g fill="#ffffff" fill-opacity="1"><g transform="translate(56.427007, 17.322578)"><g><path d="M 10.390625 -11.046875 L 10.390625 -3.90625 C 10.390625 -3.144531 10.222656 -2.457031 9.890625 -1.84375 C 9.554688 -1.226562 9.046875 -0.738281 8.359375 -0.375 C 7.679688 -0.0195312 6.832031 0.15625 5.8125 0.15625 C 4.34375 0.15625 3.222656 -0.21875 2.453125 -0.96875 C 1.691406 -1.71875 1.3125 -2.707031 1.3125 -3.9375 L 1.3125 -11.046875 L 3.65625 -11.046875 L 3.65625 -4.28125 C 3.65625 -3.375 3.835938 -2.734375 4.203125 -2.359375 C 4.578125 -1.992188 5.128906 -1.8125 5.859375 -1.8125 C 6.378906 -1.8125 6.796875 -1.898438 7.109375 -2.078125 C 7.429688 -2.253906 7.664062 -2.523438 7.8125 -2.890625 C 7.96875 -3.265625 8.046875 -3.734375 8.046875 -4.296875 L 8.046875 -11.046875 Z M 10.390625 -11.046875 "/></g></g></g><g fill="#ffffff" fill-opacity="1"><g transform="translate(67.353576, 17.322578)"><g><path d="M 5.65625 0 L 3.3125 0 L 3.3125 -9.109375 L 0.3125 -9.109375 L 0.3125 -11.046875 L 8.65625 -11.046875 L 8.65625 -9.109375 L 5.65625 -9.109375 Z M 5.65625 0 "/></g></g></g><g fill="#ffffff" fill-opacity="1"><g transform="translate(75.543917, 17.322578)"><g><path d="M 4.609375 -11.046875 C 5.609375 -11.046875 6.4375 -10.925781 7.09375 -10.6875 C 7.75 -10.445312 8.234375 -10.082031 8.546875 -9.59375 C 8.867188 -9.101562 9.03125 -8.488281 9.03125 -7.75 C 9.03125 -7.238281 8.929688 -6.796875 8.734375 -6.421875 C 8.546875 -6.046875 8.296875 -5.722656 7.984375 -5.453125 C 7.671875 -5.191406 7.332031 -4.976562 6.96875 -4.8125 L 10.21875 0 L 7.625 0 L 4.984375 -4.234375 L 3.734375 -4.234375 L 3.734375 0 L 1.390625 0 L 1.390625 -11.046875 Z M 4.453125 -9.140625 L 3.734375 -9.140625 L 3.734375 -6.140625 L 4.484375 -6.140625 C 5.265625 -6.140625 5.820312 -6.269531 6.15625 -6.53125 C 6.488281 -6.789062 6.65625 -7.175781 6.65625 -7.6875 C 6.65625 -8.207031 6.472656 -8.578125 6.109375 -8.796875 C 5.753906 -9.023438 5.203125 -9.140625 4.453125 -9.140625 Z M 4.453125 -9.140625 "/></g></g></g><g fill="#ffffff" fill-opacity="1"><g transform="translate(84.988993, 17.322578)"><g><path d="M 1.390625 0 L 1.390625 -11.046875 L 3.734375 -11.046875 L 3.734375 0 Z M 1.390625 0 "/></g></g></g><g fill="#ffffff" fill-opacity="1"><g transform="translate(107.319584, 17.32257)"><g><path d="M 11.421875 -5.546875 C 11.421875 -4.691406 11.316406 -3.914062 11.109375 -3.21875 C 10.898438 -2.519531 10.578125 -1.914062 10.140625 -1.40625 C 9.710938 -0.90625 9.164062 -0.519531 8.5 -0.25 C 7.84375 0.0195312 7.0625 0.15625 6.15625 0.15625 C 5.257812 0.15625 4.476562 0.0195312 3.8125 -0.25 C 3.15625 -0.519531 2.609375 -0.90625 2.171875 -1.40625 C 1.742188 -1.914062 1.425781 -2.519531 1.21875 -3.21875 C 1.007812 -3.914062 0.90625 -4.695312 0.90625 -5.5625 C 0.90625 -6.695312 1.09375 -7.691406 1.46875 -8.546875 C 1.84375 -9.398438 2.421875 -10.0625 3.203125 -10.53125 C 3.984375 -11 4.972656 -11.234375 6.171875 -11.234375 C 7.378906 -11.234375 8.367188 -11 9.140625 -10.53125 C 9.910156 -10.0625 10.484375 -9.398438 10.859375 -8.546875 C 11.234375 -7.691406 11.421875 -6.691406 11.421875 -5.546875 Z M 3.359375 -5.546875 C 3.359375 -4.773438 3.453125 -4.109375 3.640625 -3.546875 C 3.835938 -2.992188 4.140625 -2.566406 4.546875 -2.265625 C 4.960938 -1.960938 5.5 -1.8125 6.15625 -1.8125 C 6.820312 -1.8125 7.363281 -1.960938 7.78125 -2.265625 C 8.195312 -2.566406 8.5 -2.992188 8.6875 -3.546875 C 8.875 -4.109375 8.96875 -4.773438 8.96875 -5.546875 C 8.96875 -6.703125 8.75 -7.613281 8.3125 -8.28125 C 7.882812 -8.945312 7.171875 -9.28125 6.171875 -9.28125 C 5.515625 -9.28125 4.976562 -9.128906 4.5625 -8.828125 C 4.144531 -8.523438 3.835938 -8.09375 3.640625 -7.53125 C 3.453125 -6.976562 3.359375 -6.316406 3.359375 -5.546875 Z M 3.359375 -5.546875 "/></g></g></g><g fill="#ffffff" fill-opacity="1"><g transform="translate(118.865965, 17.32257)"><g><path d="M 5.59375 -6.203125 L 9.96875 -6.203125 L 9.96875 -0.46875 C 9.394531 -0.28125 8.796875 -0.128906 8.171875 -0.015625 C 7.546875 0.0976562 6.835938 0.15625 6.046875 0.15625 C 4.941406 0.15625 4.003906 -0.0625 3.234375 -0.5 C 2.472656 -0.9375 1.894531 -1.578125 1.5 -2.421875 C 1.101562 -3.265625 0.90625 -4.304688 0.90625 -5.546875 C 0.90625 -6.703125 1.125 -7.703125 1.5625 -8.546875 C 2.007812 -9.398438 2.660156 -10.054688 3.515625 -10.515625 C 4.378906 -10.984375 5.429688 -11.21875 6.671875 -11.21875 C 7.253906 -11.21875 7.832031 -11.148438 8.40625 -11.015625 C 8.976562 -10.890625 9.492188 -10.726562 9.953125 -10.53125 L 9.171875 -8.65625 C 8.835938 -8.832031 8.453125 -8.976562 8.015625 -9.09375 C 7.585938 -9.207031 7.132812 -9.265625 6.65625 -9.265625 C 5.976562 -9.265625 5.390625 -9.109375 4.890625 -8.796875 C 4.390625 -8.484375 4 -8.046875 3.71875 -7.484375 C 3.445312 -6.921875 3.3125 -6.257812 3.3125 -5.5 C 3.3125 -4.78125 3.410156 -4.140625 3.609375 -3.578125 C 3.804688 -3.023438 4.113281 -2.585938 4.53125 -2.265625 C 4.957031 -1.953125 5.507812 -1.796875 6.1875 -1.796875 C 6.519531 -1.796875 6.800781 -1.8125 7.03125 -1.84375 C 7.257812 -1.875 7.476562 -1.910156 7.6875 -1.953125 L 7.6875 -4.25 L 5.59375 -4.25 Z M 5.59375 -6.203125 "/></g></g></g><g fill="#ffffff" fill-opacity="1"><g transform="translate(129.30123, 17.32257)"><g><path d="M 0.234375 3.25 C -0.0664062 3.25 -0.332031 3.234375 -0.5625 3.203125 C -0.789062 3.171875 -0.988281 3.128906 -1.15625 3.078125 L -1.15625 1.140625 C -0.988281 1.171875 -0.8125 1.203125 -0.625 1.234375 C -0.445312 1.265625 -0.253906 1.28125 -0.046875 1.28125 C 0.222656 1.28125 0.46875 1.226562 0.6875 1.125 C 0.90625 1.019531 1.078125 0.820312 1.203125 0.53125 C 1.328125 0.25 1.390625 -0.160156 1.390625 -0.703125 L 1.390625 -11.046875 L 3.734375 -11.046875 L 3.734375 -0.703125 C 3.734375 0.234375 3.582031 0.992188 3.28125 1.578125 C 2.988281 2.160156 2.578125 2.582031 2.046875 2.84375 C 1.523438 3.113281 0.921875 3.25 0.234375 3.25 Z M 0.234375 3.25 "/></g></g></g><g fill="#ffffff" fill-opacity="1"><g transform="translate(133.651786, 17.32257)"><g><path d="M 8.15625 0 L 7.359375 -2.625 L 3.328125 -2.625 L 2.53125 0 L 0 0 L 3.90625 -11.09375 L 6.765625 -11.09375 L 10.6875 0 Z M 6.796875 -4.59375 L 6 -7.171875 C 5.945312 -7.335938 5.878906 -7.554688 5.796875 -7.828125 C 5.710938 -8.097656 5.628906 -8.375 5.546875 -8.65625 C 5.460938 -8.9375 5.394531 -9.179688 5.34375 -9.390625 C 5.289062 -9.179688 5.21875 -8.921875 5.125 -8.609375 C 5.039062 -8.304688 4.957031 -8.019531 4.875 -7.75 C 4.800781 -7.476562 4.742188 -7.285156 4.703125 -7.171875 L 3.921875 -4.59375 Z M 6.796875 -4.59375 "/></g></g></g><g fill="#ffffff" fill-opacity="1"><g transform="translate(5.706462, 20.999961)"><g><path d="M 7.5 -16.230469 C 7.382812 -16.230469 7.265625 -16.207031 7.152344 -16.207031 C 6.757812 -16.183594 6.386719 -16.089844 5.992188 -15.996094 C 4.320312 -15.671875 2.996094 -14.765625 2.066406 -13.351562 C 1.765625 -12.886719 1.625 -12.375 2.019531 -11.839844 C 2.230469 -11.910156 2.414062 -11.957031 2.507812 -11.980469 C 2.648438 -12.421875 2.714844 -12.839844 2.878906 -13.210938 C 3.273438 -14.324219 5.179688 -15.371094 6.269531 -15.535156 C 6.339844 -15.554688 6.429688 -15.554688 6.523438 -15.554688 C 7.476562 -15.554688 8.660156 -14.742188 8.984375 -13.839844 C 9.195312 -13.1875 9.332031 -12.539062 9.449219 -11.863281 C 9.730469 -10.308594 9.332031 -8.777344 8.9375 -7.289062 C 8.542969 -5.757812 7.640625 -4.527344 6.734375 -3.273438 C 6.410156 -2.832031 5.992188 -2.484375 5.457031 -2.230469 C 4.738281 -1.878906 3.992188 -1.8125 3.25 -1.625 C 3.109375 -1.578125 2.972656 -1.554688 2.808594 -1.554688 C 2.625 -1.554688 2.414062 -1.601562 2.277344 -1.695312 C 1.113281 -2.296875 0.8125 -3.390625 0.765625 -4.621094 C 0.71875 -5.574219 1.253906 -6.316406 1.859375 -6.941406 C 2.277344 -7.40625 2.902344 -7.640625 3.621094 -7.800781 C 3.574219 -7.59375 3.574219 -7.5 3.550781 -7.382812 C 3.203125 -6.269531 2.878906 -5.15625 2.53125 -4.0625 C 2.367188 -3.507812 2.4375 -3.203125 3.089844 -3.203125 C 3.132812 -3.203125 3.179688 -3.203125 3.226562 -3.203125 C 3.4375 -3.226562 3.667969 -3.34375 3.808594 -3.484375 C 3.992188 -3.691406 4.15625 -3.945312 4.25 -4.203125 C 4.550781 -4.96875 4.804688 -5.757812 5.0625 -6.523438 C 5.132812 -6.734375 5.199219 -6.917969 5.269531 -7.128906 C 5.316406 -7.128906 5.363281 -7.128906 5.386719 -7.128906 C 5.480469 -6.964844 5.550781 -6.804688 5.640625 -6.664062 C 5.851562 -6.339844 6.035156 -6.011719 6.246094 -5.710938 C 6.339844 -5.574219 6.429688 -5.457031 6.617188 -5.457031 C 6.6875 -5.457031 6.757812 -5.457031 6.828125 -5.503906 C 6.964844 -6.617188 6.429688 -7.429688 5.59375 -8.035156 C 5.617188 -8.171875 5.617188 -8.242188 5.640625 -8.3125 C 6.316406 -10.03125 6.386719 -11.863281 6.5 -13.675781 C 6.523438 -13.863281 6.5 -14.046875 6.476562 -14.234375 C 6.429688 -14.582031 6.082031 -14.699219 5.78125 -14.699219 C 5.386719 -14.699219 5.132812 -14.441406 5.015625 -14 C 4.761719 -12.816406 4.527344 -11.65625 4.273438 -10.496094 C 4.109375 -9.75 3.945312 -9.03125 3.785156 -8.335938 C 3.34375 -8.21875 2.925781 -8.171875 2.554688 -8.011719 C 1.253906 -7.453125 0.71875 -6.871094 0.1875 -5.617188 C 0.117188 -5.480469 0.0234375 -5.316406 0.0234375 -5.15625 C -0.0234375 -4.226562 0 -3.296875 0.488281 -2.484375 C 1.023438 -1.53125 1.671875 -1.089844 2.785156 -1.089844 C 5.292969 -1.160156 8.453125 -2.296875 9.773438 -4.574219 C 10.238281 -5.386719 10.703125 -6.199219 11.027344 -7.082031 C 11.445312 -8.335938 11.632812 -9.660156 11.5625 -11.003906 C 11.378906 -13.464844 10.519531 -16.230469 7.5 -16.230469 Z M 7.5 -16.230469 "/></g></g></g><g fill="#ffffff" fill-opacity="1"><g transform="translate(45.188348, 20.177457)"><g><path d="M 10.65625 -13.117188 C 10.078125 -15.023438 8.242188 -16.230469 6.292969 -16.230469 C 3.621094 -16.230469 1.183594 -14.117188 0.09375 -11.773438 C -0.0234375 -11.5625 -0.09375 -11.308594 0.277344 -11.167969 C 0.605469 -11.632812 0.953125 -12.074219 1.253906 -12.5625 C 2.160156 -14.046875 4.320312 -15.648438 6.152344 -15.648438 C 7.777344 -15.648438 9.078125 -13.90625 9.242188 -12.421875 C 9.3125 -11.585938 9.195312 -10.796875 8.984375 -9.984375 C 8.613281 -8.683594 7.847656 -7.730469 6.734375 -7.035156 C 6.546875 -6.894531 6.339844 -6.847656 6.152344 -6.847656 C 5.992188 -6.847656 5.828125 -6.871094 5.664062 -6.964844 C 5.503906 -7.082031 5.339844 -7.199219 5.199219 -7.289062 C 5.316406 -8.519531 5.457031 -9.660156 5.527344 -10.796875 C 5.59375 -11.703125 5.617188 -12.609375 5.433594 -13.535156 C 5.316406 -14 5.199219 -14.140625 4.714844 -14.1875 C 4.667969 -14.1875 4.621094 -14.1875 4.550781 -14.1875 C 4.132812 -14.1875 3.667969 -14.140625 3.621094 -13.628906 C 3.574219 -13.210938 3.574219 -12.816406 3.574219 -12.398438 C 3.574219 -9.402344 3.089844 -6.476562 2.183594 -3.621094 C 1.949219 -2.855469 1.742188 -2.089844 1.53125 -1.300781 C 1.441406 -0.90625 1.507812 -0.71875 1.902344 -0.648438 C 2.136719 -0.605469 2.34375 -0.582031 2.578125 -0.582031 C 2.714844 -0.582031 2.855469 -0.605469 2.972656 -0.605469 C 3.273438 -0.625 3.4375 -0.859375 3.527344 -1.160156 C 4.039062 -2.902344 4.527344 -4.644531 4.96875 -6.410156 C 5.386719 -6.246094 5.804688 -6.175781 6.199219 -6.175781 C 6.871094 -6.175781 7.5 -6.410156 8.101562 -6.828125 C 8.476562 -7.058594 8.824219 -7.3125 9.171875 -7.546875 C 9.75 -7.964844 10.078125 -8.542969 10.238281 -9.21875 C 10.308594 -9.472656 10.378906 -9.75 10.472656 -10.007812 C 10.820312 -10.980469 10.726562 -11.980469 10.703125 -12.957031 C 10.703125 -13.003906 10.679688 -13.070312 10.65625 -13.117188 Z M 10.65625 -13.117188 "/></g></g></g><g fill="#ffffff" fill-opacity="1"><g transform="translate(97.884101, 21.048389)"><g><path d="M 8.871094 -10.867188 C 8.730469 -10.703125 8.613281 -10.496094 8.359375 -10.449219 C 8.359375 -10.542969 8.359375 -10.609375 8.359375 -10.65625 C 8.496094 -12.050781 8.660156 -13.445312 8.777344 -14.835938 C 8.800781 -15.117188 8.753906 -15.394531 8.660156 -15.648438 C 8.542969 -16.042969 8.429688 -16.207031 8.195312 -16.207031 C 8.078125 -16.207031 7.964844 -16.160156 7.800781 -16.113281 C 7.683594 -16.089844 7.546875 -15.972656 7.476562 -15.882812 C 7.222656 -15.554688 7.011719 -15.230469 6.804688 -14.90625 C 6.246094 -14.070312 5.503906 -13.464844 4.644531 -12.980469 C 4.527344 -12.933594 4.433594 -12.863281 4.34375 -12.792969 C 4.503906 -12.699219 4.621094 -12.632812 4.804688 -12.632812 C 5.640625 -12.675781 6.199219 -13.234375 6.894531 -13.746094 C 6.59375 -11.980469 6.222656 -10.238281 5.828125 -8.496094 C 5.757812 -8.148438 5.574219 -7.894531 5.269531 -7.640625 C 4.273438 -6.828125 3.320312 -5.96875 2.367188 -5.085938 C 1.742188 -4.550781 0.347656 -2.4375 0.09375 -1.53125 C -0.207031 -0.558594 0.300781 0.140625 1.324219 0.164062 C 1.484375 0.1875 1.648438 0.1875 1.8125 0.1875 C 1.925781 0.1875 2.042969 0.1875 2.160156 0.164062 C 4.273438 -0.09375 5.292969 -1.53125 6.011719 -3.390625 C 6.476562 -4.597656 6.917969 -5.828125 7.359375 -7.058594 C 7.59375 -7.707031 7.777344 -8.335938 7.941406 -8.984375 C 8.035156 -9.289062 8.148438 -9.542969 8.382812 -9.75 C 9.054688 -10.332031 9.542969 -11.027344 9.9375 -11.839844 C 9.796875 -11.796875 9.660156 -11.75 9.589844 -11.65625 C 9.332031 -11.398438 9.125 -11.121094 8.871094 -10.867188 Z M 1.625 -0.371094 C 1.554688 -0.347656 1.460938 -0.347656 1.394531 -0.347656 C 1.066406 -0.347656 0.882812 -0.558594 0.8125 -0.976562 C 0.742188 -1.417969 0.859375 -1.835938 1.066406 -2.207031 C 1.460938 -2.855469 1.835938 -3.507812 2.253906 -4.109375 C 3.019531 -5.246094 4.15625 -6.175781 5.222656 -7.035156 C 5.246094 -7.011719 5.292969 -6.988281 5.316406 -6.941406 C 4.898438 -5.851562 4.480469 -4.78125 4.085938 -3.667969 C 3.738281 -2.761719 3.226562 -1.925781 2.691406 -1.113281 C 2.4375 -0.742188 2.089844 -0.464844 1.625 -0.371094 Z M 1.625 -0.371094 "/></g></g></g></svg>