<?xml version="1.0" encoding="UTF-8"?><svg id="Color_1" xmlns="http://www.w3.org/2000/svg" viewBox="0 0 721.46 537.62"><path d="M160.22,0h16.77c.73,.66,1.63,.45,2.48,.5,9.78,.6,19.49,1.81,29.06,3.94,20.58,4.57,40,12.09,58.22,22.74,19.14,11.19,36.15,24.96,50.83,41.56,9.98,11.29,18.66,23.61,27.59,35.73,11.05,15,22.19,29.91,36.26,42.35,10.03,8.86,21.11,15.98,33.87,20.14,13.55,4.41,27.47,5.98,41.75,4.89,6.71-.51,13.4-1.11,20.04-2.11,15.39-2.32,30.57-5.77,45.83-8.79,14.44-2.86,29-4.8,43.71-5.33,7.39-.27,14.77,.32,22.15,.91,16.06,1.29,31.62,4.73,46.66,10.47,19.54,7.46,36.79,18.37,51.33,33.57,10.39,10.87,18.75,23.01,24.93,36.69,8.71,19.31,11.54,39.49,8.72,60.43-1.96,14.58-6.65,28.38-12.99,41.61-8.73,18.19-20.31,34.51-33.48,49.71-10.02,11.57-20.81,22.37-32.34,32.48-11.77,10.33-24.07,19.92-36.94,28.81-22.32,15.42-45.94,28.55-70.54,39.98-19.86,9.23-40.17,17.3-60.91,24.27-23.03,7.74-46.43,13.99-70.43,18.03-15.47,2.61-31.03,4.18-46.66,4.88-10.45,.47-20.93-.14-31.39-.96-13.24-1.03-26.3-3.13-39.15-6.29-23.76-5.85-46.13-15.19-67.44-27.22-16.54-9.34-32.15-20.02-46.98-31.81-10.95-8.7-21.47-17.93-31.39-27.82-8.1-8.07-16.21-16.14-23.82-24.69l-1.81-2.02-2.24-2.59c-.61-.68-1.21-1.35-1.82-2.03-.74-.88-1.47-1.76-2.21-2.64-.42-.47-.84-.94-1.26-1.41-.31-.86-.93-1.48-1.64-2.02l-1.25-1.45c-.32-.86-.92-1.5-1.63-2.06-1.99-2.38-3.54-5.13-5.99-7.13-.48-1.57-1.66-2.65-2.7-3.82-3.54-4.73-7.08-9.46-10.61-14.18l-.95-1.42c-.65-.87-1.3-1.75-1.94-2.62-.71-1.04-1.41-2.08-2.12-3.12-.9-1.55-1.78-3.12-3.08-4.39-1.51-2.29-3.03-4.58-4.54-6.86-.7-1.73-1.92-3.13-3-4.62-.74-1.16-1.47-2.31-2.21-3.47-.51-1.16-1.07-2.28-2.17-3.01l-.07-.09c-.2-1.01-.53-1.96-1.34-2.67l-1.05-1.74c-.6-.98-1.2-1.96-1.81-2.94-.77-1.32-1.54-2.64-2.31-3.97-.58-.99-1.16-1.97-1.74-2.96l-.6-1.08c-.57-.99-1.14-1.98-1.71-2.97l-.59-1.08-1.69-3.02c-.23-.82-.55-1.59-1.2-2.18-.76-1.39-1.51-2.79-2.27-4.18-.74-2.01-1.75-3.88-2.96-5.64-1.33-2.55-2.65-5.1-3.98-7.66l-.74-1.59c-1.15-2.31-2.31-4.62-3.46-6.93-.6-2.29-1.79-4.31-2.9-6.36l-2.09-4.33-1.55-3.85-.96-2.22-1.27-4.05-.95-2.33c-2.61-7.92-5.23-15.84-7.84-23.77l-.8-2.26c-.96-3.4-1.98-6.78-2.88-10.2-2.53-9.51-5.02-19.02-7.52-28.54-.04-.81,.03-1.65-.6-2.3-.9-5.45-2.06-10.84-3.54-16.17,.02-1.82-.39-3.55-1.05-5.22-.42-4.8-1.34-9.56-1.3-14.4v-17.41c-.05-4.61,.56-9.15,1.22-13.7,2.51-17.27,7.46-33.78,15.44-49.31,14.37-27.99,35.65-49.48,62.59-65.45C100.63,12.59,123.62,4.53,148.37,1.61c3.95-.47,8.02-.24,11.86-1.61Z" fill="#b9c88b"/></svg>