<?xml version="1.0" encoding="UTF-8"?><svg id="Color_1" xmlns="http://www.w3.org/2000/svg" viewBox="0 0 655.3 496.82"><path d="M378.94,496.82h-34.95c-.38-.75-1.09-.51-1.68-.54-9.17-.53-18.3-1.4-27.41-2.63-40.12-5.41-78.06-17.63-113.77-36.65-59.83-31.87-107.4-76.99-144.15-133.76-.89-1.37-1.78-2.72-2.92-3.92-9.83-10.36-19.46-20.89-27.94-32.41-10.87-14.77-19.64-30.56-23.64-48.66C1.52,233.86,.82,229.4,0,224.98v-18.56c.78-.34,.53-1.07,.62-1.66,1.22-8.33,3.5-16.32,7.51-23.78,7.69-14.31,19.73-23.76,34.12-30.59,12.04-5.71,24.76-9.46,37.63-12.7,30.07-7.57,58.98-18.14,86.46-32.59,31.77-16.7,60.26-37.9,86.59-62.17,11.9-10.97,24.23-21.46,38.08-30.02,23.06-14.25,47.11-17.04,72.45-6.76,12.45,5.05,23.98,11.75,35.03,19.29,55.35,37.76,110.67,75.55,165.95,113.41,19.16,13.12,37.64,27.08,53.56,44.16,22.31,23.94,35.41,51.94,37.09,84.82,1.55,30.47-5.16,59.21-19.28,86.2-15.34,29.31-37.23,53.06-63.52,72.76-56.8,42.55-120.93,65.2-191.67,69.47-.59,.04-1.31-.24-1.67,.54Z" fill="#c86b43"/></svg>