<?xml version="1.0" encoding="UTF-8"?><svg id="Color_1" xmlns="http://www.w3.org/2000/svg" viewBox="0 0 462.68 526.98"><path d="M250.28,0h3.66c.45,.18,.9,.5,1.36,.53,8.47,.47,16.04,3.56,23.02,8.14,13.34,8.74,20.93,21.84,26.89,36.09,5.01,11.99,8.57,24.47,12.29,36.9,5.41,18.1,9.99,36.41,13.84,54.9,4.48,21.45,8.01,43.06,10.69,64.83,2.63,21.36,4.4,42.79,5.1,64.27,.4,12.37,.96,24.76,.44,37.18-.51,12.07-.59,24.16-1.34,36.23-.76,12.26-1.82,24.48-3.04,36.7-1.68,16.87-4.25,33.61-7.1,50.31-2.95,17.33-6.68,34.5-11.04,51.53-2.79,10.91-4.96,22.03-10.66,32-3.98,6.97-9.84,11.19-17.61,12.94-2.91,.65-5.87,.47-8.79,.84-13.31,1.72-26.68,2.92-40.09,3.28-15.75,.42-31.51,.51-47.27-.36-15.34-.85-30.6-2.35-45.78-4.6-33.8-5.01-66.73-13.41-98.79-25.25-13.09-4.84-26.04-9.97-37.19-18.66C7.26,468.77,.4,457.23,.02,442.19c-.34-13.55,3.79-26.09,8.62-38.42,25.96-66.36,55.89-130.88,89.88-193.52,23-42.39,47.65-83.79,74.14-124.08,14.97-22.77,30.04-45.5,46.66-67.11,6.79-8.83,15.01-16.07,26.59-18.19,1.46-.27,3.09,.22,4.38-.86Z" fill="#c7d3a2"/><path d="M462.68,387.64c-1.68,5.29-1.75,10.87-2.82,16.28-2.65,13.38-6.91,26.24-12.19,38.75-6.3,14.93-14.03,29.12-23.34,42.42-5.23,7.47-10.69,14.72-17.4,20.93-9.47,8.76-20.32,15.1-33.22,16.89-7.74,1.07-15.56,.79-22.82-3.09-5.11-2.74-7.4-7.13-8.43-12.56-1.68-8.77,1.88-16.54,4.67-24.38,4.44-12.49,9.21-24.85,14.12-37.17,7.05-17.68,13.78-35.49,20.68-53.23,6.38-16.42,12.78-32.83,19.24-49.22,2.63-6.68,6.06-13.06,12.06-17.16,8.34-5.71,17.09-4.44,25.33,.53,9.99,6.03,15.86,15.36,19.79,26.08,1.96,5.34,2.92,10.91,3.75,16.52,.07,.5,.09,1.02,.6,1.31v17.09Z" fill="#b9c88b"/></svg>