<?xml version="1.0" encoding="UTF-8"?><svg id="Color_1" xmlns="http://www.w3.org/2000/svg" viewBox="0 0 648.33 573.58"><path d="M0,404.09v-6.03c1.19-4.52,1.17-9.04,0-13.57v-9.04c1.62-5.33,.6-10.8,.73-16.19,.11-4.38,.84-8.88-.73-13.21v-47.48c1.34-4.23,.73-8.56,.7-12.86,.9-25.98,2.88-51.87,5.88-77.69,2.91-25.05,7.25-49.84,12.14-74.59,6.79-34.32,21.42-63.99,46.64-88.37,13.47-13.03,28.68-22.75,47.53-25.76,29.38-4.69,55.13,8.8,63.55,40.5,4.05,15.27,3.44,30.56,.37,45.89-3.23,16.14-8.62,31.7-12.89,47.56-5.01,18.59-8.06,37.37-4,56.53,4.22,19.93,14.82,34.73,35.16,40.83,20.83,6.24,38.31-2.48,45.22-22.35,1.65-4.75,2.74-9.67,3.22-14.68,2.93-30.36,4.42-60.83,6.79-91.23,1.39-17.88,1.91-35.86,5.27-53.55,3.54-18.62,10.35-35.53,24.41-49C301.38-.7,331.13,.24,350.62,22.52c13.31,15.22,19.65,33.42,20.97,53.33,1.31,19.73-2.88,38.96-6.31,58.23-3.34,18.79-6.93,37.58-4.99,56.81,2.3,22.74,12.23,41.58,30.43,55.46,21.61,16.47,47.52,11.86,62.97-10.55,5.33-7.74,9-16.23,11.42-25.25,5.59-20.92,5.11-42.27,4.27-63.62-.9-22.82-3.05-45.68,.37-68.43,3.54-23.53,12.62-44.58,29.91-61.51,17.88-17.51,41.86-21.79,64.62-11.43,11.42,5.2,20.75,13.12,28.57,22.85,11.72,14.58,18.42,31.58,23.07,49.42,7.53,28.91,12.96,58.28,18.49,87.61,6.47,34.3,11.48,68.81,13.28,103.72,1.97,38.45-.3,76.52-9.93,113.94-5.34,20.73-12.22,40.89-24.36,58.8-11.97,17.66-27.46,30.41-48.95,34.93-27.13,5.71-50.38-6.42-60.91-32.04-3.74-9.11-5.77-18.66-7.49-28.3-2.53-14.19-4.51-28.47-8.21-42.47-13.52-51.14-73.6-63.88-109.28-32.67-19.73,17.26-28.85,39.26-29.52,65.16-.37,14.07,.91,28.11,.62,42.17-.28,13.64-1.87,27.07-8.43,39.37-15.22,28.55-54.05,42.33-85.22,30.3-31.73-12.25-53.65-46.75-52.43-82.43,.53-15.47,3.7-30.64,4.91-46.03,1.01-12.82-.07-25.35-5.06-37.31-7.15-17.12-22.82-26.98-39.31-25.11-14.65,1.66-26.82,8.15-36.61,18.94-12.58,13.86-16.43,30.99-17.26,49.02-.81,17.56,2.28,34.76,5.5,51.92,3.79,20.23,7.8,40.42,6.42,61.21-1.21,18.29-7.4,34.43-19.83,48.08-19.59,21.5-47.9,22.71-68.71,2.62-10.22-9.86-16.23-22.14-19.37-35.94-1.93-8.5-1.63-17.26-3.26-25.74-4.99-25.93-8.21-52.04-9.68-78.39-.28-5.03,.33-10.17-1.3-15.09Z" fill="#c86b43"/><path d="M0,346.05c1.57,4.32,.83,8.83,.73,13.21-.13,5.39,.89,10.86-.73,16.19v-29.39Z" fill="#e5bba8"/><path d="M0,384.49c1.17,4.52,1.19,9.04,0,13.57v-13.57Z" fill="#e5bba8"/><path d="M0,285.76c.23,.02,.47,.01,.7-.04,.03,4.3,.64,8.63-.7,12.86v-12.81Z" fill="#e5bba8"/></svg>