<svg xmlns="http://www.w3.org/2000/svg" viewBox="0 0 64 64"><defs><style>.cls-1{fill:#415fb5;}.cls-2{fill:#577ef2;}.cls-3{fill:#202d35;}.cls-4{fill:#273640;}.cls-5{fill:#1d252d;}.cls-6{fill:#fcee21;}.cls-7{fill:#364f97;}.cls-8{fill:#b50b38;}.cls-9{fill:#f20f4b;}.cls-10{fill:#c8c2b5;}.cls-11{fill:#e7e5e0;}.cls-12{fill:#222325;}</style></defs><g id="_20-voucher" data-name="20-voucher"><g id="color"><path class="cls-1" d="M35,5V59a4,4,0,0,1-4,4H5a4,4,0,0,1-4-4V5a3.66,3.66,0,0,1,.13-1A4,4,0,0,1,5,1H31a4,4,0,0,1,3.87,3A3.66,3.66,0,0,1,35,5Z"/><path class="cls-2" d="M35,5V59a4,4,0,0,1-4,4h-.47C20.48,54.71,13.17,30.14,13,1H31a4,4,0,0,1,3.87,3A3.66,3.66,0,0,1,35,5Z"/><path class="cls-3" d="M34.87,4H27a1,1,0,0,0-1,1,1,1,0,0,1-1,1H11a1,1,0,0,1-1-1A1,1,0,0,0,9,4H1.13A4,4,0,0,1,5,1H31A4,4,0,0,1,34.87,4Z"/><path class="cls-4" d="M34.87,4H27a1,1,0,0,0-1,1,1,1,0,0,1-1,1H13.1c0-1.65-.09-3.32-.09-5H31A4,4,0,0,1,34.87,4Z"/><path class="cls-5" d="M31,0H5A5,5,0,0,0,0,5V59a5,5,0,0,0,5,5H31a3.94,3.94,0,0,0,.77-.07A5,5,0,0,0,36,59V5A5,5,0,0,0,31,0Zm3,59a3,3,0,0,1-3,3H5a3,3,0,0,1-3-3V5A3,3,0,0,1,5,2H31a3,3,0,0,1,3,3Z"/><path class="cls-3" d="M36,5V59a5,5,0,0,1-4.23,4.93A17.09,17.09,0,0,1,29.41,62H31a3,3,0,0,0,3-3V5a3,3,0,0,0-3-3H13c0-.66,0-1.33,0-2H31A5,5,0,0,1,36,5Z"/><path class="cls-2" d="M5,12a1,1,0,0,1-1-1V10a1,1,0,0,1,2,0v1A1,1,0,0,1,5,12Z"/><path class="cls-2" d="M8,12a1,1,0,0,1-1-1V10a1,1,0,0,1,2,0v1A1,1,0,0,1,8,12Z"/><path class="cls-6" d="M17,56a2,2,0,0,1-1.41-.59l-2-2a2,2,0,1,1,2.82-2.82l.59.58,2.59-2.58a2,2,0,1,1,2.82,2.82l-4,4A2,2,0,0,1,17,56Z"/><path class="cls-7" d="M9,54H8a2,2,0,0,1,0-4H9a2,2,0,0,1,0,4Z"/><path class="cls-1" d="M28,54H27a2,2,0,0,1,0-4h1a2,2,0,0,1,0,4Z"/><path class="cls-4" d="M9,53H8a1,1,0,0,1,0-2H9a1,1,0,0,1,0,2Z"/><path class="cls-4" d="M28,53H27a1,1,0,0,1,0-2h1a1,1,0,0,1,0,2Z"/><path class="cls-8" d="M63,14V42H54a3,3,0,0,0-6,0H15V14H48a3,3,0,0,0,6,0Z"/><path class="cls-9" d="M63,14V42H54a3,3,0,0,0-6,0H39.37C31.57,36.18,26.29,25.85,26,14H48a3,3,0,0,0,6,0Z"/><path class="cls-8" d="M53,17v2a2,2,0,0,1-.69,1.5,2,2,0,0,1-2.62,0A2,2,0,0,1,49,19V17a1.85,1.85,0,0,1,.12-.67,3,3,0,0,0,3.76,0A1.85,1.85,0,0,1,53,17Z"/><path class="cls-8" d="M51,26a2,2,0,0,1-2-2V22a2,2,0,0,1,4,0v2A2,2,0,0,1,51,26Z"/><path class="cls-8" d="M51,30a2,2,0,0,1-2-2V27a2,2,0,0,1,4,0v1A2,2,0,0,1,51,30Z"/><path class="cls-8" d="M51,36a2,2,0,0,1-2-2V32a2,2,0,0,1,4,0v2A2,2,0,0,1,51,36Z"/><path class="cls-8" d="M53,37v2a1.85,1.85,0,0,1-.12.67,3,3,0,0,0-3.76,0A1.85,1.85,0,0,1,49,39V37a2,2,0,0,1,.69-1.5,2,2,0,0,1,2.62,0A2,2,0,0,1,53,37Z"/><path class="cls-10" d="M42,28A11,11,0,1,1,31,17,11,11,0,0,1,42,28Z"/><path class="cls-11" d="M42,28a11,11,0,0,1-6.82,10.18,36.56,36.56,0,0,1-8.87-20.13A11,11,0,0,1,42,28Z"/><circle class="cls-4" cx="27" cy="24" r="2"/><circle class="cls-4" cx="35" cy="32" r="2"/><path class="cls-4" d="M27,33a1,1,0,0,1-.71-.29,1,1,0,0,1,0-1.42l8-8a1,1,0,0,1,1.42,1.42l-8,8A1,1,0,0,1,27,33Z"/><path class="cls-4" d="M51,20a1,1,0,0,1-1-1V17a1,1,0,0,1,2,0v2A1,1,0,0,1,51,20Z"/><path class="cls-4" d="M51,25a1,1,0,0,1-1-1V22a1,1,0,0,1,2,0v2A1,1,0,0,1,51,25Z"/><path class="cls-4" d="M51,29a1,1,0,0,1-1-1V27a1,1,0,0,1,2,0v1A1,1,0,0,1,51,29Z"/><path class="cls-4" d="M51,35a1,1,0,0,1-1-1V32a1,1,0,0,1,2,0v2A1,1,0,0,1,51,35Z"/><path class="cls-4" d="M51,40a1,1,0,0,1-1-1V37a1,1,0,0,1,2,0v2A1,1,0,0,1,51,40Z"/></g><g id="line"><path class="cls-12" d="M31,64H5a5,5,0,0,1-5-5V5A5,5,0,0,1,5,0H31a5,5,0,0,1,5,5v9a1,1,0,0,1-2,0V5a3,3,0,0,0-3-3H5A3,3,0,0,0,2,5V59a3,3,0,0,0,3,3H31a3,3,0,0,0,3-3V42a1,1,0,0,1,2,0V59A5,5,0,0,1,31,64Z"/><path class="cls-12" d="M25,7H11A2,2,0,0,1,9,5H1V3H9a2,2,0,0,1,2,2H25a2,2,0,0,1,2-2h8V5H27A2,2,0,0,1,25,7Z"/><path class="cls-12" d="M27,27a3,3,0,1,1,3-3A3,3,0,0,1,27,27Zm0-4a1,1,0,1,0,1,1A1,1,0,0,0,27,23Z"/><path class="cls-12" d="M35,35a3,3,0,1,1,3-3A3,3,0,0,1,35,35Zm0-4a1,1,0,1,0,1,1A1,1,0,0,0,35,31Z"/><path class="cls-12" d="M27,33a1,1,0,0,1-.71-.29,1,1,0,0,1,0-1.42l8-8a1,1,0,0,1,1.42,1.42l-8,8A1,1,0,0,1,27,33Z"/><path class="cls-12" d="M31,40A12,12,0,1,1,43,28,12,12,0,0,1,31,40Zm0-22A10,10,0,1,0,41,28,10,10,0,0,0,31,18Z"/><path class="cls-12" d="M63,43H54a1,1,0,0,1-1-1,2,2,0,0,0-4,0,1,1,0,0,1-1,1H15a1,1,0,0,1-1-1V14a1,1,0,0,1,1-1H48a1,1,0,0,1,1,1,2,2,0,0,0,4,0,1,1,0,0,1,1-1h9a1,1,0,0,1,1,1V42A1,1,0,0,1,63,43Zm-8.13-2H62V15H54.87a4,4,0,0,1-7.74,0H16V41H47.13a4,4,0,0,1,7.74,0Z"/><path class="cls-12" d="M51,20a1,1,0,0,1-1-1V17a1,1,0,0,1,2,0v2A1,1,0,0,1,51,20Z"/><path class="cls-12" d="M51,25a1,1,0,0,1-1-1V22a1,1,0,0,1,2,0v2A1,1,0,0,1,51,25Z"/><path class="cls-12" d="M51,29a1,1,0,0,1-1-1V27a1,1,0,0,1,2,0v1A1,1,0,0,1,51,29Z"/><path class="cls-12" d="M51,35a1,1,0,0,1-1-1V32a1,1,0,0,1,2,0v2A1,1,0,0,1,51,35Z"/><path class="cls-12" d="M51,40a1,1,0,0,1-1-1V37a1,1,0,0,1,2,0v2A1,1,0,0,1,51,40Z"/><path class="cls-12" d="M17,57a3,3,0,0,1-2.12-.88l-2-2a3,3,0,0,1,0-4.24A3.08,3.08,0,0,1,17,49.76l1.88-1.88a3.08,3.08,0,0,1,4.24,0,3,3,0,0,1,0,4.24l-4,4A3,3,0,0,1,17,57Zm-2-6a1,1,0,0,0-.71,1.71l2,2a1,1,0,0,0,1.42,0l4-4a1,1,0,0,0,0-1.42,1,1,0,0,0-1.42,0l-2.58,2.59a1,1,0,0,1-1.42,0l-.58-.59A1,1,0,0,0,15,51Z"/><path class="cls-12" d="M9,53H8a1,1,0,0,1,0-2H9a1,1,0,0,1,0,2Z"/><path class="cls-12" d="M28,53H27a1,1,0,0,1,0-2h1a1,1,0,0,1,0,2Z"/><path class="cls-12" d="M5,12a1,1,0,0,1-1-1V10a1,1,0,0,1,2,0v1A1,1,0,0,1,5,12Z"/><path class="cls-12" d="M8,12a1,1,0,0,1-1-1V10a1,1,0,0,1,2,0v1A1,1,0,0,1,8,12Z"/></g></g></svg>