<svg xmlns="http://www.w3.org/2000/svg" xmlns:xlink="http://www.w3.org/1999/xlink" width="1366" zoomAndPan="magnify" viewBox="0 0 1024.5 576" height="768" preserveAspectRatio="xMidYMid meet" version="1.0"><defs><clipPath id="808d14c96a"><path d="M 0 0.140625 L 1024 0.140625 L 1024 575.859375 L 0 575.859375 Z M 0 0.140625 " clip-rule="nonzero"/></clipPath><clipPath id="79b75f23fb"><path d="M 872 66 L 966.804688 66 L 966.804688 166.988281 L 872 166.988281 Z M 872 66 " clip-rule="nonzero"/></clipPath><clipPath id="d4413b65dc"><path d="M 52 382 L 165 382 L 165 479.367188 L 52 479.367188 Z M 52 382 " clip-rule="nonzero"/></clipPath><clipPath id="fd6d30f1c5"><path d="M 834 316 L 1024 316 L 1024 575.859375 L 834 575.859375 Z M 834 316 " clip-rule="nonzero"/></clipPath><clipPath id="4ea38baf74"><path d="M 0 0.140625 L 251.25 0.140625 L 251.25 294.140625 L 0 294.140625 Z M 0 0.140625 " clip-rule="nonzero"/></clipPath></defs><g clip-path="url(#808d14c96a)"><path fill="#ffffff" d="M 0 0.140625 L 1024.5 0.140625 L 1024.5 583.640625 L 0 583.640625 Z M 0 0.140625 " fill-opacity="1" fill-rule="nonzero"/><path fill="#ffffff" d="M 0 0.140625 L 1024.5 0.140625 L 1024.5 576.140625 L 0 576.140625 Z M 0 0.140625 " fill-opacity="1" fill-rule="nonzero"/><path fill="#ffffff" d="M 0 0.140625 L 1024.5 0.140625 L 1024.5 576.140625 L 0 576.140625 Z M 0 0.140625 " fill-opacity="1" fill-rule="nonzero"/></g><g clip-path="url(#79b75f23fb)"><path fill="#1ca379" d="M 947.710938 72.964844 C 947.710938 72.964844 947.730469 72.964844 947.730469 72.945312 C 947.75 72.945312 947.75 72.925781 947.769531 72.925781 C 947.75 72.945312 947.730469 72.964844 947.710938 72.964844 Z M 936.480469 73.648438 C 936.398438 73.691406 936.335938 73.710938 936.257812 73.75 C 936.359375 73.75 936.457031 73.75 936.539062 73.75 C 936.539062 73.730469 936.5 73.691406 936.480469 73.648438 Z M 966.722656 69.175781 C 966.664062 71.011719 965.050781 72.238281 964.34375 73.851562 C 963.515625 75.542969 962.46875 77.09375 961.5 78.707031 C 960.128906 80.921875 958.960938 83.238281 957.589844 85.4375 C 957.003906 86.363281 956.480469 87.308594 955.976562 88.277344 C 955.332031 90.269531 953.800781 91.863281 951.582031 90.996094 C 949.566406 90.152344 949.402344 87.710938 950.472656 86.019531 C 951.359375 84.207031 952.40625 82.472656 953.457031 80.761719 C 954.664062 78.546875 955.996094 76.410156 957.285156 74.273438 C 956.742188 74.65625 956.199219 75.058594 955.652344 75.460938 C 955.675781 75.441406 955.714844 75.421875 955.734375 75.402344 C 955.714844 75.421875 955.675781 75.441406 955.652344 75.460938 C 955.675781 75.441406 955.695312 75.421875 955.734375 75.402344 C 955.230469 75.765625 954.726562 76.109375 954.242188 76.46875 C 954.160156 76.53125 954.082031 76.589844 954 76.652344 C 953.71875 76.773438 953.414062 76.894531 953.132812 77.035156 C 948.316406 79.3125 943.554688 81.808594 939.058594 84.710938 C 932.566406 89.003906 926.640625 94.21875 922.023438 100.527344 C 935.429688 107.175781 932.003906 126.398438 922.0625 134.675781 C 916.195312 139.976562 908.351562 137.558594 906.859375 129.742188 C 905.226562 121.539062 908.027344 113.261719 911.660156 105.964844 C 894.984375 110.921875 885.183594 131.855469 880.75 147.410156 C 879.640625 151.378906 878.773438 155.410156 878.207031 159.480469 C 877.722656 161.210938 878.269531 166.933594 875.96875 166.933594 C 873.589844 166.933594 872.5625 165.28125 872.179688 161.675781 C 871.554688 155.933594 873.367188 147.1875 874.960938 141.609375 C 880.585938 123.597656 894.761719 101.554688 915.550781 99.359375 C 921.296875 90.835938 929.058594 83.84375 937.769531 78.484375 C 940.449219 76.875 943.191406 75.320312 945.996094 73.910156 C 945.933594 73.910156 945.894531 73.910156 945.835938 73.910156 C 945.855469 73.910156 945.855469 73.890625 945.875 73.890625 C 946.15625 73.769531 946.4375 73.628906 946.722656 73.488281 C 947.0625 73.308594 947.386719 73.144531 947.730469 72.964844 C 947.789062 72.925781 947.871094 72.902344 947.929688 72.863281 C 948.011719 72.824219 948.09375 72.78125 948.171875 72.742188 C 948.375 72.664062 948.578125 72.601562 948.757812 72.519531 C 943.65625 72.421875 938.375 71.976562 937.386719 70.789062 C 936.78125 70.082031 937.003906 68.996094 937.6875 68.429688 C 938.816406 67.707031 940.351562 68.210938 941.621094 68.027344 C 945.1875 67.847656 948.757812 67.746094 952.328125 67.542969 C 955.914062 67.304688 959.445312 66.757812 963.011719 66.316406 C 964.847656 65.792969 966.804688 67.304688 966.722656 69.175781 Z M 918.734375 105.441406 C 915.628906 110.902344 913.007812 116.847656 912.402344 123.152344 C 912.503906 125.972656 911.800781 130.871094 915.386719 131.65625 C 920.511719 129.863281 923.292969 124.179688 924.601562 119.242188 C 925.632812 113.582031 924.582031 107.878906 918.734375 105.441406 Z M 918.734375 105.441406 " fill-opacity="1" fill-rule="nonzero"/></g><g clip-path="url(#d4413b65dc)"><path fill="#1ca379" d="M 104.722656 479.128906 C 99.214844 479.171875 94.101562 475.039062 96.5 469.222656 C 98.242188 465.050781 101.6875 461.835938 104.972656 458.84375 C 120.640625 445.28125 140.6875 437.335938 155.324219 422.523438 C 145.949219 423.546875 136.890625 426.503906 127.878906 429.183594 C 111.085938 434.261719 95.070312 441.449219 78.65625 447.566406 C 72.421875 449.667969 65.941406 452.34375 59.242188 451.636719 C 56.113281 451.355469 52.960938 449.28125 52.464844 446.007812 C 51.796875 441.148438 56.082031 437.605469 59.277344 434.621094 C 71.582031 424.445312 85.667969 416.703125 99.53125 408.886719 C 104.355469 406.1875 109.261719 403.640625 114.058594 400.890625 C 118.671875 398.152344 123.707031 395.523438 127.035156 391.199219 C 122.042969 389.855469 116.863281 391.246094 111.910156 392.117188 C 101.042969 394.238281 90.789062 398.515625 80.757812 403.085938 C 76.070312 405.59375 71.277344 407.949219 66.765625 410.773438 C 64.671875 412.035156 62.59375 414.007812 59.992188 413.816406 C 58.367188 413.617188 57.046875 412.160156 57.046875 410.515625 C 56.898438 405.796875 72.195312 398.925781 76.226562 396.5 C 86.289062 391.660156 96.695312 387.292969 107.621094 384.84375 C 115.089844 383.324219 123.230469 381.113281 130.632812 383.960938 C 133.394531 385.109375 135.484375 387.839844 135.355469 390.894531 C 134.839844 401.234375 113.703125 409.796875 105.597656 414.773438 C 96.933594 419.523438 88.34375 424.417969 79.996094 429.703125 C 73.558594 433.933594 66.84375 438.0625 61.539062 443.707031 C 69.386719 443.039062 76.710938 439.566406 84.035156 436.898438 C 94.542969 432.679688 104.988281 428.289062 115.734375 424.703125 C 129.003906 420.394531 142.414062 415.492188 156.40625 414.375 C 163.761719 413.613281 167.226562 420.230469 162.785156 426.042969 C 160.347656 429.648438 156.847656 432.335938 153.515625 435.058594 C 147.617188 439.667969 141.351562 443.789062 135.070312 447.847656 C 124.546875 454.921875 112.496094 460.824219 104.632812 471.03125 C 109.386719 471.28125 114.046875 469.851562 118.652344 468.851562 C 124.269531 467.457031 129.851562 465.925781 135.421875 464.359375 C 140.21875 462.257812 143.976562 468.527344 139.503906 471.433594 C 132.554688 473.839844 125.296875 475.5 118.152344 477.28125 C 113.738281 478.207031 109.273438 479.367188 104.722656 479.128906 Z M 104.722656 479.128906 " fill-opacity="1" fill-rule="nonzero"/></g><g clip-path="url(#fd6d30f1c5)"><path fill="#f6b99d" d="M 881.84375 386.222656 C 868.78125 441.382812 900.375 521.429688 876.589844 539.378906 C 819.234375 582.648438 830.546875 642.703125 853.894531 669.917969 C 878.484375 698.523438 985.675781 692.394531 1005.304688 617.894531 C 1010.996094 596.292969 1027.996094 570.976562 1045.507812 557.550781 C 1080.753906 530.476562 1171.378906 519.386719 1192.832031 475.09375 C 1206.621094 446.566406 1205.015625 405.703125 1132.265625 397.3125 C 1076.375 390.890625 1051.128906 406.945312 1012.820312 385.054688 C 986.695312 370.09375 1016.03125 310.773438 946.054688 317.195312 C 911.46875 320.332031 890.453125 350.027344 881.84375 386.222656 Z M 881.84375 386.222656 " fill-opacity="1" fill-rule="evenodd"/></g><g clip-path="url(#4ea38baf74)"><path fill="#dcc295" d="M 0.457031 294.042969 C 0.0117188 293.386719 0.0898438 292.808594 0.0898438 292.246094 C 0.0859375 195.878906 0.0859375 99.511719 0.0898438 3.140625 C 0.0898438 0.511719 0.0976562 0.511719 2.722656 0.511719 C 84.949219 0.511719 167.171875 0.511719 249.398438 0.519531 C 249.949219 0.519531 250.742188 0.238281 250.988281 0.703125 C 251.273438 1.234375 250.671875 1.820312 250.324219 2.296875 C 248.210938 5.242188 246.523438 8.460938 244.566406 11.503906 C 242.660156 14.464844 240.871094 17.519531 238.832031 20.390625 C 237.40625 22.394531 235.980469 24.410156 234.292969 26.25 C 232.152344 28.582031 230.347656 31.21875 228.367188 33.703125 C 225.699219 37.050781 222.488281 39.859375 219.273438 42.65625 C 217.570312 44.136719 215.882812 45.675781 214 46.90625 C 211.167969 48.761719 208.363281 50.660156 205.433594 52.367188 C 201.96875 54.386719 198.378906 56.1875 194.714844 57.75 C 191.085938 59.300781 187.453125 60.867188 183.738281 62.242188 C 178.511719 64.175781 173.488281 66.652344 168.285156 68.652344 C 165.238281 69.824219 162.214844 71.089844 159.117188 72.097656 C 155.867188 73.15625 152.867188 74.792969 149.644531 75.847656 C 146.5625 76.859375 143.738281 78.453125 140.710938 79.53125 C 136.519531 81.023438 132.5 82.917969 128.433594 84.675781 C 124.371094 86.433594 120.355469 88.351562 116.414062 90.417969 C 113.742188 91.820312 111.1875 93.382812 108.621094 94.921875 C 105.796875 96.617188 103.105469 98.542969 100.511719 100.609375 C 96.589844 103.726562 92.816406 107.015625 89.28125 110.550781 C 86.65625 113.171875 84.203125 115.972656 81.8125 118.816406 C 78.585938 122.65625 75.863281 126.855469 73.386719 131.179688 C 70.933594 135.453125 68.878906 139.949219 67.234375 144.628906 C 65.664062 149.105469 64.214844 153.628906 62.757812 158.136719 C 61.875 160.878906 61.101562 163.710938 60.441406 166.539062 C 60.183594 167.636719 59.71875 168.683594 59.453125 169.777344 C 58.191406 174.957031 57.332031 180.230469 55.878906 185.371094 C 55.398438 187.074219 55.242188 188.875 54.796875 190.589844 C 54.101562 193.277344 53.398438 195.976562 52.488281 198.597656 C 51.429688 201.640625 50.863281 204.820312 49.769531 207.851562 C 47.847656 213.164062 46.449219 218.644531 44.503906 223.957031 C 43.292969 227.257812 41.832031 230.464844 40.757812 233.800781 C 39.417969 237.96875 37.476562 241.871094 35.6875 245.828125 C 33.980469 249.585938 32.121094 253.285156 30.132812 256.925781 C 27.324219 262.074219 23.886719 266.773438 20.433594 271.476562 C 18.816406 273.671875 16.960938 275.699219 15.351562 277.90625 C 11.019531 283.824219 5.703125 288.808594 0.457031 294.042969 Z M 0.457031 294.042969 " fill-opacity="1" fill-rule="nonzero"/></g></svg>